<mxfile host="app.diagrams.net" modified="2020-04-21T02:55:51.891Z" agent="5.0 (Windows NT 10.0; Win64; x64) AppleWebKit/537.36 (KHTML, like Gecko) Chrome/73.0.3683.86 Safari/537.36" etag="Rj0mH2VjtweBaQlItFLB" version="12.9.14" type="github">
  <diagram id="Khm2Yfi34oc6YSyt9r9d" name="Page-1">
    <mxGraphModel dx="868" dy="435" grid="0" gridSize="10" guides="1" tooltips="1" connect="1" arrows="1" fold="1" page="1" pageScale="1" pageWidth="827" pageHeight="1169" math="0" shadow="0">
      <root>
        <mxCell id="0" />
        <mxCell id="1" parent="0" />
        <mxCell id="r4BPX95HfUOhP3XXMuaA-1" value="" style="rounded=1;whiteSpace=wrap;html=1;" parent="1" vertex="1">
          <mxGeometry x="240" y="160" width="110" height="110" as="geometry" />
        </mxCell>
        <mxCell id="r4BPX95HfUOhP3XXMuaA-2" value="" style="rounded=1;whiteSpace=wrap;html=1;" parent="1" vertex="1">
          <mxGeometry x="480" y="140" width="170" height="160" as="geometry" />
        </mxCell>
        <mxCell id="r4BPX95HfUOhP3XXMuaA-3" value="WAN" style="rounded=0;whiteSpace=wrap;html=1;" parent="1" vertex="1">
          <mxGeometry x="480" y="200" width="30" height="30" as="geometry" />
        </mxCell>
        <mxCell id="r4BPX95HfUOhP3XXMuaA-7" style="edgeStyle=orthogonalEdgeStyle;rounded=0;orthogonalLoop=1;jettySize=auto;html=1;entryX=0;entryY=0.5;entryDx=0;entryDy=0;" parent="1" source="r4BPX95HfUOhP3XXMuaA-4" target="r4BPX95HfUOhP3XXMuaA-3" edge="1">
          <mxGeometry relative="1" as="geometry" />
        </mxCell>
        <mxCell id="r4BPX95HfUOhP3XXMuaA-4" value="LAN" style="rounded=0;whiteSpace=wrap;html=1;" parent="1" vertex="1">
          <mxGeometry x="320" y="200" width="30" height="30" as="geometry" />
        </mxCell>
        <mxCell id="r4BPX95HfUOhP3XXMuaA-5" value="LAN1" style="rounded=0;whiteSpace=wrap;html=1;" parent="1" vertex="1">
          <mxGeometry x="520" y="270" width="40" height="30" as="geometry" />
        </mxCell>
        <mxCell id="r4BPX95HfUOhP3XXMuaA-6" value="LAN2" style="rounded=0;whiteSpace=wrap;html=1;" parent="1" vertex="1">
          <mxGeometry x="590" y="270" width="40" height="30" as="geometry" />
        </mxCell>
        <mxCell id="r4BPX95HfUOhP3XXMuaA-8" value="室外机X11" style="text;html=1;strokeColor=#001DBC;fillColor=#0050ef;align=center;verticalAlign=middle;whiteSpace=wrap;rounded=0;fontColor=#ffffff;" parent="1" vertex="1">
          <mxGeometry x="252.5" y="170" width="85" height="20" as="geometry" />
        </mxCell>
        <mxCell id="r4BPX95HfUOhP3XXMuaA-9" value="室内机B10" style="text;html=1;strokeColor=#001DBC;fillColor=#0050ef;align=center;verticalAlign=middle;whiteSpace=wrap;rounded=0;fontColor=#ffffff;" parent="1" vertex="1">
          <mxGeometry x="529" y="165" width="85" height="20" as="geometry" />
        </mxCell>
        <mxCell id="r4BPX95HfUOhP3XXMuaA-10" value="" style="ellipse;whiteSpace=wrap;html=1;fillColor=none;dashed=1;dashPattern=1 2;" parent="1" vertex="1">
          <mxGeometry x="299" y="185" width="230" height="70" as="geometry" />
        </mxCell>
        <mxCell id="r4BPX95HfUOhP3XXMuaA-14" value="" style="endArrow=none;html=1;" parent="1" edge="1">
          <mxGeometry width="50" height="50" relative="1" as="geometry">
            <mxPoint x="240" y="190" as="sourcePoint" />
            <mxPoint x="200" y="190" as="targetPoint" />
          </mxGeometry>
        </mxCell>
        <mxCell id="r4BPX95HfUOhP3XXMuaA-15" value="" style="endArrow=none;html=1;exitX=1;exitY=0.25;exitDx=0;exitDy=0;" parent="1" edge="1">
          <mxGeometry width="50" height="50" relative="1" as="geometry">
            <mxPoint x="200" y="189" as="sourcePoint" />
            <mxPoint x="200" y="139" as="targetPoint" />
          </mxGeometry>
        </mxCell>
        <mxCell id="r4BPX95HfUOhP3XXMuaA-16" value="" style="endArrow=none;html=1;" parent="1" edge="1">
          <mxGeometry width="50" height="50" relative="1" as="geometry">
            <mxPoint x="200" y="139" as="sourcePoint" />
            <mxPoint x="220" y="119" as="targetPoint" />
          </mxGeometry>
        </mxCell>
        <mxCell id="r4BPX95HfUOhP3XXMuaA-17" value="" style="endArrow=none;html=1;exitX=1;exitY=0.25;exitDx=0;exitDy=0;" parent="1" edge="1">
          <mxGeometry width="50" height="50" relative="1" as="geometry">
            <mxPoint x="200" y="139" as="sourcePoint" />
            <mxPoint x="180" y="119" as="targetPoint" />
          </mxGeometry>
        </mxCell>
        <mxCell id="r4BPX95HfUOhP3XXMuaA-20" value="" style="endArrow=none;html=1;exitX=1;exitY=0.25;exitDx=0;exitDy=0;" parent="1" edge="1">
          <mxGeometry width="50" height="50" relative="1" as="geometry">
            <mxPoint x="650" y="240" as="sourcePoint" />
            <mxPoint x="750" y="240" as="targetPoint" />
          </mxGeometry>
        </mxCell>
        <mxCell id="r4BPX95HfUOhP3XXMuaA-21" value="" style="endArrow=none;html=1;" parent="1" edge="1">
          <mxGeometry width="50" height="50" relative="1" as="geometry">
            <mxPoint x="750" y="240" as="sourcePoint" />
            <mxPoint x="750" y="180" as="targetPoint" />
          </mxGeometry>
        </mxCell>
        <mxCell id="r4BPX95HfUOhP3XXMuaA-22" value="" style="endArrow=none;html=1;" parent="1" edge="1">
          <mxGeometry width="50" height="50" relative="1" as="geometry">
            <mxPoint x="750" y="180" as="sourcePoint" />
            <mxPoint x="770" y="160" as="targetPoint" />
          </mxGeometry>
        </mxCell>
        <mxCell id="r4BPX95HfUOhP3XXMuaA-23" value="" style="endArrow=none;html=1;exitX=1;exitY=0.25;exitDx=0;exitDy=0;" parent="1" edge="1">
          <mxGeometry width="50" height="50" relative="1" as="geometry">
            <mxPoint x="750" y="180" as="sourcePoint" />
            <mxPoint x="730" y="160" as="targetPoint" />
          </mxGeometry>
        </mxCell>
        <mxCell id="r4BPX95HfUOhP3XXMuaA-24" value="&lt;font style=&quot;font-size: 14px&quot;&gt;5G&lt;/font&gt;" style="text;html=1;strokeColor=none;fillColor=none;align=center;verticalAlign=middle;whiteSpace=wrap;rounded=0;dashed=1;dashPattern=1 2;" parent="1" vertex="1">
          <mxGeometry x="180" y="100" width="40" height="20" as="geometry" />
        </mxCell>
        <mxCell id="r4BPX95HfUOhP3XXMuaA-30" value="" style="endArrow=none;html=1;" parent="1" edge="1">
          <mxGeometry width="50" height="50" relative="1" as="geometry">
            <mxPoint x="700" y="200" as="sourcePoint" />
            <mxPoint x="700" y="140" as="targetPoint" />
          </mxGeometry>
        </mxCell>
        <mxCell id="r4BPX95HfUOhP3XXMuaA-31" value="" style="endArrow=none;html=1;" parent="1" edge="1">
          <mxGeometry width="50" height="50" relative="1" as="geometry">
            <mxPoint x="700" y="140" as="sourcePoint" />
            <mxPoint x="720" y="120" as="targetPoint" />
          </mxGeometry>
        </mxCell>
        <mxCell id="r4BPX95HfUOhP3XXMuaA-32" value="" style="endArrow=none;html=1;exitX=1;exitY=0.25;exitDx=0;exitDy=0;" parent="1" edge="1">
          <mxGeometry width="50" height="50" relative="1" as="geometry">
            <mxPoint x="700" y="140" as="sourcePoint" />
            <mxPoint x="680" y="120" as="targetPoint" />
          </mxGeometry>
        </mxCell>
        <mxCell id="r4BPX95HfUOhP3XXMuaA-33" value="" style="endArrow=none;html=1;exitX=1;exitY=0.25;exitDx=0;exitDy=0;" parent="1" edge="1">
          <mxGeometry width="50" height="50" relative="1" as="geometry">
            <mxPoint x="650" y="199" as="sourcePoint" />
            <mxPoint x="700" y="199" as="targetPoint" />
          </mxGeometry>
        </mxCell>
        <mxCell id="r4BPX95HfUOhP3XXMuaA-34" value="&lt;font style=&quot;font-size: 14px&quot;&gt;2.4G&lt;/font&gt;" style="text;html=1;strokeColor=none;fillColor=none;align=center;verticalAlign=middle;whiteSpace=wrap;rounded=0;dashed=1;dashPattern=1 2;" parent="1" vertex="1">
          <mxGeometry x="680" y="100" width="40" height="20" as="geometry" />
        </mxCell>
        <mxCell id="r4BPX95HfUOhP3XXMuaA-37" value="&lt;font style=&quot;font-size: 14px&quot;&gt;5.8G&lt;/font&gt;" style="text;html=1;strokeColor=none;fillColor=none;align=center;verticalAlign=middle;whiteSpace=wrap;rounded=0;dashed=1;dashPattern=1 2;" parent="1" vertex="1">
          <mxGeometry x="730" y="145" width="40" height="20" as="geometry" />
        </mxCell>
        <mxCell id="r4BPX95HfUOhP3XXMuaA-40" value="RTL8125B" style="ellipse;shape=doubleEllipse;whiteSpace=wrap;html=1;dashed=1;dashPattern=1 2;fillColor=none;" parent="1" vertex="1">
          <mxGeometry x="270" y="310" width="92" height="50" as="geometry" />
        </mxCell>
        <mxCell id="r4BPX95HfUOhP3XXMuaA-41" value="RTL8226B" style="ellipse;shape=doubleEllipse;whiteSpace=wrap;html=1;dashed=1;dashPattern=1 2;fillColor=none;" parent="1" vertex="1">
          <mxGeometry x="428" y="310" width="92" height="50" as="geometry" />
        </mxCell>
        <mxCell id="r4BPX95HfUOhP3XXMuaA-43" value="" style="endArrow=classic;html=1;fillColor=#6a00ff;strokeColor=#3700CC;" parent="1" target="r4BPX95HfUOhP3XXMuaA-40" edge="1">
          <mxGeometry width="50" height="50" relative="1" as="geometry">
            <mxPoint x="330" y="230" as="sourcePoint" />
            <mxPoint x="300" y="280" as="targetPoint" />
          </mxGeometry>
        </mxCell>
        <mxCell id="r4BPX95HfUOhP3XXMuaA-44" value="" style="endArrow=classic;html=1;fillColor=#6a00ff;strokeColor=#3700CC;" parent="1" edge="1">
          <mxGeometry width="50" height="50" relative="1" as="geometry">
            <mxPoint x="490.68" y="229.93" as="sourcePoint" />
            <mxPoint x="480.0046159866096" y="309.99538010042824" as="targetPoint" />
          </mxGeometry>
        </mxCell>
        <mxCell id="r4BPX95HfUOhP3XXMuaA-45" value="&lt;h1&gt;X11与B10打流说明&lt;/h1&gt;&lt;p&gt;1. B10与X11连接2.5G PHY后，进行打流测试&lt;/p&gt;&lt;p&gt;X11： iperf -s -w 8MB&lt;/p&gt;&lt;p&gt;B10：iperf -c 192.168.0.1 -P 5 -i 1 -w 8M -t 30.&lt;/p&gt;&lt;p&gt;备注：&lt;/p&gt;&lt;p&gt;192.168.0.1为X11的ip&lt;/p&gt;&lt;p&gt;cat /proc/rtl8226b/link_status，显示已经link到2.5G&lt;br&gt;&lt;/p&gt;&lt;p&gt;结果：350-500Mbps之间&lt;/p&gt;" style="text;html=1;strokeColor=#000000;fillColor=none;spacing=5;spacingTop=-20;whiteSpace=wrap;overflow=hidden;rounded=0;" parent="1" vertex="1">
          <mxGeometry x="204" y="366" width="520" height="227" as="geometry" />
        </mxCell>
        <mxCell id="r4BPX95HfUOhP3XXMuaA-46" value="iperf 打流" style="text;html=1;strokeColor=#C73500;fillColor=#fa6800;align=center;verticalAlign=middle;whiteSpace=wrap;rounded=0;fontColor=#ffffff;" parent="1" vertex="1">
          <mxGeometry x="388" y="219" width="40" height="28" as="geometry" />
        </mxCell>
        <mxCell id="r4BPX95HfUOhP3XXMuaA-47" value="" style="rounded=0;whiteSpace=wrap;html=1;strokeColor=#000000;fillColor=none;" parent="1" vertex="1">
          <mxGeometry x="157" y="104" width="618" height="499" as="geometry" />
        </mxCell>
        <mxCell id="JTD1cQW0_URNUT2uEpqC-1" value="" style="ellipse;whiteSpace=wrap;html=1;fillColor=none;dashed=1;dashPattern=1 2;rotation=30;strokeColor=#6c8ebf;strokeWidth=3;" vertex="1" parent="1">
          <mxGeometry x="431" y="199.46" width="242" height="109" as="geometry" />
        </mxCell>
        <mxCell id="JTD1cQW0_URNUT2uEpqC-2" value="有线连接" style="text;html=1;strokeColor=none;fillColor=none;align=center;verticalAlign=middle;whiteSpace=wrap;rounded=0;dashed=1;dashPattern=1 2;" vertex="1" parent="1">
          <mxGeometry x="379" y="194" width="52" height="20" as="geometry" />
        </mxCell>
        <mxCell id="JTD1cQW0_URNUT2uEpqC-3" value="bridge(br0)&lt;br&gt;【wan+lan】" style="text;html=1;strokeColor=#6c8ebf;fillColor=#dae8fc;align=center;verticalAlign=middle;whiteSpace=wrap;rounded=0;" vertex="1" parent="1">
          <mxGeometry x="673" y="310" width="81" height="47" as="geometry" />
        </mxCell>
        <mxCell id="JTD1cQW0_URNUT2uEpqC-4" value="" style="endArrow=classic;html=1;entryX=0;entryY=0.5;entryDx=0;entryDy=0;" edge="1" parent="1" target="JTD1cQW0_URNUT2uEpqC-3">
          <mxGeometry width="50" height="50" relative="1" as="geometry">
            <mxPoint x="657" y="315" as="sourcePoint" />
            <mxPoint x="707" y="265" as="targetPoint" />
          </mxGeometry>
        </mxCell>
      </root>
    </mxGraphModel>
  </diagram>
</mxfile>
